<svg xmlns="http://www.w3.org/2000/svg" viewBox="0 0 135.078 87.492">
<defs>
    <clipPath id="clip-path">
    <path id="Rectangle_472" data-name="Rectangle 472" transform="translate(77.922 18.508)" fill="none" d="M0 0h135.078v87.492H0z"/></clipPath>
</defs>
<g id="Group_457" data-name="Group 457" transform="translate(-77.922 -18.508)" clip-path="url(#clip-path)">
<path id="Path_294" data-name="Path 294" d="M122.975 84.126c-12.449 0-22.543-9.793-22.543-21.872s10.094-21.873 22.543-21.873 22.543 9.792 22.543 21.873-10.093 21.872-22.543 21.872M213 40.381V18.508c-24.122 0-43.821 18.382-45.027 41.5-1.206-23.1-20.89-41.466-45-41.466-24.883 0-45.053 19.571-45.053 43.714s20.17 43.714 45.053 43.714c24.106 0 43.79-18.369 45-41.467C169.177 87.617 188.876 106 213 106V84.126c-12.429 0-22.539-9.813-22.539-21.872S200.567 40.382 213 40.381" fill="#811429"/></g>
</svg>